<svg width="38" height="38" viewBox="0 0 38 38" fill="none" xmlns="http://www.w3.org/2000/svg">
<path d="M4.12534 11.3617L11.2721 16.4664C11.6439 16.732 11.8299 16.8648 12.0245 16.8954C12.1957 16.9224 12.3711 16.8952 12.5262 16.8178C12.7024 16.7298 12.8395 16.547 13.1137 16.1814L14.6239 14.1678C14.7014 14.0644 14.7402 14.0127 14.7858 13.9682C14.8262 13.9286 14.8706 13.8932 14.9183 13.8626C14.9719 13.8281 15.0309 13.8019 15.149 13.7494L21.5967 10.8838C21.864 10.765 21.9976 10.7056 22.0984 10.6128C22.1875 10.5308 22.2577 10.4303 22.304 10.3184C22.3564 10.1918 22.3661 10.0459 22.3856 9.75406L22.8577 2.67264M21.4987 21.3903L25.8587 23.2589C26.3646 23.4757 26.6175 23.5841 26.7515 23.7641C26.869 23.9221 26.9269 24.1166 26.9147 24.3131C26.9008 24.5371 26.7482 24.7661 26.4429 25.224L24.3945 28.2966C24.2498 28.5137 24.1774 28.6222 24.0818 28.7008C23.9972 28.7703 23.8997 28.8225 23.7949 28.8544C23.6765 28.8903 23.546 28.8903 23.2851 28.8903H19.9597C19.6141 28.8903 19.4413 28.8903 19.2943 28.8325C19.1645 28.7814 19.0496 28.6986 18.9601 28.5916C18.8587 28.4704 18.8041 28.3065 18.6948 27.9786L17.5067 24.4142C17.4422 24.2209 17.41 24.1242 17.4015 24.0259C17.394 23.9388 17.4002 23.851 17.42 23.7659C17.4423 23.6698 17.4879 23.5786 17.579 23.3963L18.4815 21.5913C18.6649 21.2245 18.7566 21.0412 18.8978 20.9273C19.0223 20.827 19.173 20.7646 19.3319 20.7475C19.5123 20.7282 19.7068 20.793 20.0957 20.9226L21.4987 21.3903ZM35.6654 18.8903C35.6654 28.095 28.2034 35.557 18.9987 35.557C9.79395 35.557 2.33203 28.095 2.33203 18.8903C2.33203 9.68555 9.79395 2.22363 18.9987 2.22363C28.2034 2.22363 35.6654 9.68555 35.6654 18.8903Z" stroke="#3051F3" stroke-opacity="0.8" stroke-width="3.33333" stroke-linecap="round" stroke-linejoin="round"/>
</svg>
