<svg width="38" height="32" viewBox="0 0 38 32" fill="none" xmlns="http://www.w3.org/2000/svg">
<path d="M25.6673 2.67022C28.1368 3.89748 29.834 6.44586 29.834 9.39062C29.834 12.3354 28.1368 14.8838 25.6673 16.111M29.0007 24.8346C31.5197 25.9745 33.7882 27.8323 35.6673 30.224M2.33398 30.224C5.57814 26.0949 9.98262 23.5573 14.834 23.5573C19.6854 23.5573 24.0898 26.0949 27.334 30.224M22.334 9.39062C22.334 13.5328 18.9761 16.8906 14.834 16.8906C10.6918 16.8906 7.33398 13.5328 7.33398 9.39062C7.33398 5.24849 10.6918 1.89062 14.834 1.89062C18.9761 1.89062 22.334 5.24849 22.334 9.39062Z" stroke="#3051F3" stroke-opacity="0.8" stroke-width="3.33333" stroke-linecap="round" stroke-linejoin="round"/>
</svg>
