<svg width="25" height="25" viewBox="0 0 25 25" fill="none" xmlns="http://www.w3.org/2000/svg">
<g clip-path="url(#clip0_16389_10122)">
<path d="M22.6302 0.230469H2.17861C1.19893 0.230469 0.406738 1.00391 0.406738 1.96016V22.4961C0.406738 23.4523 1.19893 24.2305 2.17861 24.2305H22.6302C23.6099 24.2305 24.4067 23.4523 24.4067 22.5008V1.96016C24.4067 1.00391 23.6099 0.230469 22.6302 0.230469ZM7.52705 20.682H3.96455V9.22578H7.52705V20.682ZM5.7458 7.66484C4.60205 7.66484 3.67861 6.74141 3.67861 5.60234C3.67861 4.46328 4.60205 3.53984 5.7458 3.53984C6.88486 3.53984 7.8083 4.46328 7.8083 5.60234C7.8083 6.73672 6.88486 7.66484 5.7458 7.66484ZM20.8583 20.682H17.3005V15.1133C17.3005 13.7867 17.2771 12.0758 15.4489 12.0758C13.5974 12.0758 13.3161 13.5242 13.3161 15.0195V20.682H9.76299V9.22578H13.1755V10.7914H13.2224C13.6958 9.89141 14.8583 8.93984 16.588 8.93984C20.1927 8.93984 20.8583 11.3117 20.8583 14.3961V20.682Z" fill="#000D4D" fill-opacity="0.45"/>
</g>
<defs>
<clipPath id="clip0_16389_10122">
<rect width="24" height="24" fill="white" transform="translate(0.406738 0.230469)"/>
</clipPath>
</defs>
</svg>
