<svg width="30" height="27" viewBox="0 0 30 27" fill="none" xmlns="http://www.w3.org/2000/svg">
<path d="M20.1667 2.75649C22.1423 3.73829 23.5 5.777 23.5 8.13281C23.5 10.4886 22.1423 12.5273 20.1667 13.5091M22.8333 20.488C24.8486 21.3999 26.6634 22.8861 28.1667 24.7995M1.5 24.7995C4.09532 21.4963 7.61891 19.4661 11.5 19.4661C15.3811 19.4661 18.9047 21.4963 21.5 24.7995M17.5 8.13281C17.5 11.4465 14.8137 14.1328 11.5 14.1328C8.18629 14.1328 5.5 11.4465 5.5 8.13281C5.5 4.8191 8.18629 2.13281 11.5 2.13281C14.8137 2.13281 17.5 4.8191 17.5 8.13281Z" stroke="#3051F3" stroke-opacity="0.8" stroke-width="2.66667" stroke-linecap="round" stroke-linejoin="round"/>
</svg>
