<svg width="30" height="30" viewBox="0 0 30 30" fill="none" xmlns="http://www.w3.org/2000/svg">
<path d="M19.1673 2.41021C17.9046 2.01361 16.5609 1.7998 15.1673 1.7998C7.80352 1.7998 1.83398 7.76934 1.83398 15.1331C1.83398 22.4969 7.80352 28.4665 15.1673 28.4665C22.5311 28.4665 28.5007 22.4969 28.5007 15.1331C28.5007 12.846 27.9248 10.6934 26.9102 8.8124M21.834 6.7998H21.8407M13.1674 28.3175L13.1675 25.3797C13.1675 25.2206 13.2245 25.0667 13.328 24.9459L16.6424 21.079C16.9148 20.7612 16.8304 20.274 16.467 20.0663L12.6587 17.8901C12.5552 17.831 12.4695 17.7452 12.4104 17.6417L9.92793 13.2913C9.79873 13.0649 9.54942 12.9346 9.28976 12.9577L1.91956 13.6141M27.1673 7.13314C27.1673 10.0787 24.5007 12.4665 21.834 15.1331C19.1673 12.4665 16.5007 10.0787 16.5007 7.13314C16.5007 4.18762 18.8885 1.7998 21.834 1.7998C24.7795 1.7998 27.1673 4.18762 27.1673 7.13314ZM22.1673 6.7998C22.1673 6.9839 22.0181 7.13314 21.834 7.13314C21.6499 7.13314 21.5007 6.9839 21.5007 6.7998C21.5007 6.61571 21.6499 6.46647 21.834 6.46647C22.0181 6.46647 22.1673 6.61571 22.1673 6.7998Z" stroke="#3051F3" stroke-opacity="0.8" stroke-width="2.66667" stroke-linecap="round" stroke-linejoin="round"/>
</svg>
