<svg width="41" height="41" viewBox="0 0 41 41" fill="none" xmlns="http://www.w3.org/2000/svg">
<g clip-path="url(#clip0_16264_7330)">
<mask id="mask0_16264_7330" style="mask-type:alpha" maskUnits="userSpaceOnUse" x="0" y="0" width="41" height="41">
<path d="M20.5 40.1328C31.5457 40.1328 40.5 31.1785 40.5 20.1328C40.5 9.08712 31.5457 0.132812 20.5 0.132812C9.4543 0.132812 0.5 9.08712 0.5 20.1328C0.5 31.1785 9.4543 40.1328 20.5 40.1328Z" fill="white"/>
</mask>
<g mask="url(#mask0_16264_7330)">
<path d="M0.5 29.7031L20.3516 27.9766L40.5 29.7031V40.1328H0.5V29.7031Z" fill="#496E2D"/>
<path d="M0.5 20.1416L20.4219 17.7744L40.5 20.1416V29.7041H0.5V20.1416Z" fill="#FFDA44"/>
<path d="M0.5 0.132812H40.5V20.1328H0.5V0.132812Z" fill="#338AF3"/>
<path d="M23.1094 11.8506L25.5547 12.9912L24.25 15.3662L26.9063 14.8584L27.2422 17.5381L29.0859 15.5693L30.9375 17.5381L31.2734 14.8584L33.9297 15.3662L32.625 12.999L35.0625 11.8506L32.625 10.7021L33.9219 8.33496L31.2656 8.84277L30.9375 6.16309L29.0859 8.13965L27.2422 6.16309L26.9063 8.84277L24.25 8.33496L25.5547 10.7021L23.1094 11.8506Z" fill="#FFDA44"/>
</g>
</g>
<defs>
<clipPath id="clip0_16264_7330">
<rect width="40" height="40" fill="white" transform="translate(0.5 0.132812)"/>
</clipPath>
</defs>
</svg>
