<svg width="41" height="41" viewBox="0 0 41 41" fill="none" xmlns="http://www.w3.org/2000/svg">
<g clip-path="url(#clip0_16791_15892)">
<mask id="mask0_16791_15892" style="mask-type:alpha" maskUnits="userSpaceOnUse" x="0" y="0" width="41" height="41">
<path d="M20.5 40.1328C31.5457 40.1328 40.5 31.1785 40.5 20.1328C40.5 9.08712 31.5457 0.132812 20.5 0.132812C9.4543 0.132812 0.5 9.08712 0.5 20.1328C0.5 31.1785 9.4543 40.1328 20.5 40.1328Z" fill="white"/>
</mask>
<g mask="url(#mask0_16791_15892)">
<path d="M11.8125 0.132812H29.1875L31.6875 20.4453L29.1875 40.1328H11.8125L9.30469 20.1328L11.8125 0.132812Z" fill="#FFDA44"/>
<path d="M0.5 0.132812H11.8125V40.1328H0.5V0.132812Z" fill="#496E2D"/>
<path d="M29.1875 0.132812H40.5V40.1328H29.1875V0.132812Z" fill="#D80027"/>
<path d="M20.5098 13.1797L22.2363 18.4922H27.8223L23.3145 21.7734L25.0332 27.0859L20.5176 23.8047L15.9941 27.0859L17.7207 21.7734L13.2051 18.4922H18.7832L20.5098 13.1797Z" fill="#496E2D"/>
</g>
</g>
<defs>
<clipPath id="clip0_16791_15892">
<rect width="40" height="40" fill="white" transform="translate(0.5 0.132812)"/>
</clipPath>
</defs>
</svg>
