<svg width="19" height="19" viewBox="0 0 19 19" fill="none" xmlns="http://www.w3.org/2000/svg">
<path d="M10.3416 11.6007L14.4071 17.5634M8.4726 11.6007L4.40708 17.5634M11.0737 10.2301C11.0737 11.1506 10.3276 11.8968 9.40708 11.8968C8.4866 11.8968 7.74041 11.1506 7.74041 10.2301C7.74041 9.30965 8.4866 8.56346 9.40708 8.56346C10.3276 8.56346 11.0737 9.30965 11.0737 10.2301ZM13.6975 3.00702L3.87725 5.63834C3.65185 5.69874 3.53915 5.72894 3.46481 5.79587C3.39942 5.85475 3.35435 5.93282 3.33605 6.01889C3.31526 6.11673 3.34545 6.22944 3.40585 6.45484L4.13917 9.19163C4.19957 9.41703 4.22977 9.52974 4.2967 9.60407C4.35558 9.66946 4.43365 9.71454 4.51972 9.73283C4.61756 9.75363 4.73026 9.72343 4.95567 9.66303L14.7759 7.03171L13.6975 3.00702ZM17.5674 7.14646C16.6658 7.38805 16.215 7.50884 15.8236 7.42565C15.4793 7.35247 15.167 7.17218 14.9315 6.91062C14.6638 6.61327 14.543 6.16246 14.3014 5.26084L14.172 4.77788C13.9304 3.87627 13.8096 3.42546 13.8928 3.03407C13.966 2.6898 14.1463 2.37753 14.4078 2.14201C14.7052 1.87427 15.156 1.75348 16.0576 1.51189C16.283 1.4515 16.3957 1.4213 16.4936 1.4421C16.5796 1.46039 16.6577 1.50546 16.7166 1.57085C16.7835 1.64519 16.8137 1.75789 16.8741 1.9833L18.0388 6.32996C18.0992 6.55537 18.1294 6.66807 18.1086 6.76592C18.0903 6.85199 18.0452 6.93005 17.9798 6.98893C17.9055 7.05587 17.7928 7.08606 17.5674 7.14646ZM2.32517 9.50514L3.45208 9.20319C3.67749 9.14279 3.79019 9.11259 3.86453 9.04566C3.92992 8.98678 3.97499 8.90871 3.99329 8.82264C4.01408 8.7248 3.98389 8.6121 3.92349 8.38669L3.62153 7.25978C3.56114 7.03437 3.53094 6.92167 3.464 6.84733C3.40513 6.78194 3.32706 6.73687 3.24099 6.71858C3.14314 6.69778 3.03044 6.72798 2.80504 6.78837L1.67812 7.09033C1.45272 7.15073 1.34002 7.18092 1.26568 7.24786C1.20029 7.30674 1.15522 7.3848 1.13692 7.47087C1.11612 7.56872 1.14632 7.68142 1.20672 7.90683L1.50867 9.03374C1.56907 9.25914 1.59927 9.37184 1.6662 9.44618C1.72508 9.51157 1.80315 9.55665 1.88922 9.57494C1.98706 9.59574 2.09977 9.56554 2.32517 9.50514Z" stroke="#3051F3" stroke-opacity="0.8" stroke-width="1.66667" stroke-linecap="round" stroke-linejoin="round"/>
</svg>
