<svg width="25" height="25" viewBox="0 0 25 25" fill="none" xmlns="http://www.w3.org/2000/svg">
<g clip-path="url(#clip0_16389_10121)">
<path d="M7.95689 21.9812C17.0113 21.9812 21.965 14.4779 21.965 7.97306C21.965 7.76212 21.9603 7.5465 21.951 7.33556C22.9146 6.63866 23.7462 5.77546 24.4067 4.7865C23.5093 5.1858 22.5564 5.44658 21.5806 5.55994C22.608 4.94411 23.3773 3.97667 23.7458 2.83697C22.7793 3.40976 21.7223 3.81381 20.6202 4.03181C19.8776 3.24276 18.8957 2.72032 17.8264 2.54525C16.7571 2.37019 15.6599 2.55225 14.7045 3.0633C13.749 3.57434 12.9885 4.38591 12.5406 5.37251C12.0926 6.35912 11.9822 7.46582 12.2263 8.5215C10.2692 8.42329 8.35467 7.91491 6.60672 7.0293C4.85877 6.14369 3.31643 4.90064 2.07971 3.38072C1.45114 4.46444 1.25879 5.74685 1.54177 6.96729C1.82474 8.18774 2.5618 9.25465 3.60314 9.95119C2.82137 9.92637 2.05671 9.71588 1.37236 9.33712V9.39806C1.37166 10.5354 1.76484 11.6378 2.48505 12.518C3.20526 13.3982 4.20806 14.0018 5.32299 14.2262C4.59879 14.4243 3.83872 14.4532 3.10158 14.3106C3.41619 15.2886 4.02831 16.1441 4.85251 16.7575C5.67671 17.371 6.67186 17.7118 7.69908 17.7324C5.95516 19.1023 3.80091 19.8453 1.5833 19.8418C1.19003 19.8412 0.797137 19.8171 0.406738 19.7696C2.65959 21.215 5.28027 21.9826 7.95689 21.9812Z" fill="#000D4D" fill-opacity="0.45"/>
</g>
<defs>
<clipPath id="clip0_16389_10121">
<rect width="24" height="24" fill="white" transform="translate(0.406738 0.230469)"/>
</clipPath>
</defs>
</svg>
