<svg width="30" height="29" viewBox="0 0 30 29" fill="none" xmlns="http://www.w3.org/2000/svg">
<path d="M4.23698 16.731L6.33651 25.1291C6.39556 25.3653 6.42508 25.4834 6.46001 25.5865C6.8012 26.5938 7.70834 27.3021 8.76834 27.3888C8.87685 27.3977 8.99858 27.3977 9.24203 27.3977C9.5469 27.3977 9.69933 27.3977 9.82775 27.3852C11.097 27.2621 12.1014 26.2577 12.2245 24.9884C12.237 24.86 12.237 24.7076 12.237 24.4027V5.39767M23.5703 16.0643C26.1476 16.0643 28.237 13.975 28.237 11.3977C28.237 8.82034 26.1476 6.731 23.5703 6.731M12.5703 5.39767H7.57031C4.2566 5.39767 1.57031 8.08396 1.57031 11.3977C1.57031 14.7114 4.25661 17.3977 7.57031 17.3977H12.5703C14.9256 17.3977 17.8066 18.6602 20.0294 19.8719C21.3261 20.5787 21.9744 20.9322 22.3991 20.8802C22.7928 20.8319 23.0906 20.6551 23.3214 20.3325C23.5703 19.9845 23.5703 19.2883 23.5703 17.896V4.89938C23.5703 3.507 23.5703 2.8108 23.3214 2.46285C23.0906 2.1402 22.7928 1.9634 22.3991 1.91517C21.9744 1.86316 21.3261 2.2166 20.0294 2.92347C17.8066 4.13515 14.9255 5.39767 12.5703 5.39767Z" stroke="#000D4D" stroke-opacity="0.45" stroke-width="2.66667" stroke-linecap="round" stroke-linejoin="round"/>
</svg>
