<svg width="38" height="38" viewBox="0 0 38 38" fill="none" xmlns="http://www.w3.org/2000/svg">
<path d="M19.0007 23.8903C13.4778 23.8903 9.00065 19.4131 9.00065 13.8903V4.63104C9.00065 3.94129 9.00065 3.59642 9.10116 3.32027C9.26966 2.85732 9.63434 2.49264 10.0973 2.32415C10.3734 2.22363 10.7183 2.22363 11.4081 2.22363H26.5932C27.283 2.22363 27.6279 2.22363 27.904 2.32415C28.367 2.49264 28.7316 2.85732 28.9001 3.32027C29.0007 3.59642 29.0007 3.94129 29.0007 4.63104V13.8903C29.0007 19.4131 24.5235 23.8903 19.0007 23.8903ZM19.0007 23.8903V28.8903M29.0007 5.55697H33.1673C33.9439 5.55697 34.3322 5.55697 34.6385 5.68383C35.0468 5.85299 35.3713 6.17745 35.5404 6.58583C35.6673 6.89211 35.6673 7.2804 35.6673 8.05697V8.8903C35.6673 10.4403 35.6673 11.2152 35.4969 11.8511C35.0346 13.5765 33.6869 14.9243 31.9614 15.3866C31.3256 15.557 30.5506 15.557 29.0007 15.557M9.00065 5.55697H4.83398C4.05742 5.55697 3.66913 5.55697 3.36285 5.68383C2.95447 5.85299 2.63001 6.17745 2.46085 6.58583C2.33398 6.89211 2.33398 7.2804 2.33398 8.05697V8.8903C2.33398 10.4403 2.33398 11.2152 2.50436 11.8511C2.96669 13.5765 4.31443 14.9243 6.03989 15.3866C6.67572 15.557 7.4507 15.557 9.00065 15.557M11.4081 35.557H26.5932C27.0023 35.557 27.334 35.2253 27.334 34.8162C27.334 31.5434 24.6809 28.8903 21.4081 28.8903H16.5932C13.3204 28.8903 10.6673 31.5434 10.6673 34.8162C10.6673 35.2253 10.999 35.557 11.4081 35.557Z" stroke="#3051F3" stroke-opacity="0.8" stroke-width="3.33333" stroke-linecap="round" stroke-linejoin="round"/>
</svg>
