<svg width="30" height="37" viewBox="0 0 30 37" fill="none" xmlns="http://www.w3.org/2000/svg">
<path d="M9.99935 18.0579L13.3327 21.3912L20.8327 13.8912M28.3327 18.8912C28.3327 27.072 19.4094 33.0219 16.1627 34.916C15.7937 35.1313 15.6092 35.2389 15.3488 35.2948C15.1468 35.3381 14.8519 35.3381 14.6499 35.2948C14.3895 35.2389 14.205 35.1313 13.836 34.916C10.5893 33.0219 1.66602 27.072 1.66602 18.8912V10.9206C1.66602 9.58804 1.66602 8.92178 1.88395 8.34906C2.07647 7.84312 2.38932 7.39169 2.79545 7.03377C3.25517 6.62862 3.87901 6.39468 5.12669 5.9268L14.063 2.57568C14.4095 2.44575 14.5828 2.38078 14.761 2.35502C14.9191 2.33218 15.0796 2.33218 15.2377 2.35502C15.4159 2.38078 15.5892 2.44575 15.9357 2.57568L24.872 5.9268C26.1197 6.39468 26.7435 6.62862 27.2033 7.03377C27.6094 7.39169 27.9222 7.84312 28.1147 8.34906C28.3327 8.92178 28.3327 9.58804 28.3327 10.9206V18.8912Z" stroke="#3051F3" stroke-opacity="0.8" stroke-width="3.33333" stroke-linecap="round" stroke-linejoin="round"/>
</svg>
