<svg width="40" height="41" viewBox="0 0 40 41" fill="none" xmlns="http://www.w3.org/2000/svg">
<path d="M21.8677 25.632L29.9987 37.5575M18.1298 25.632L9.99873 37.5575M23.3321 22.8909C23.3321 24.7319 21.8397 26.2242 19.9987 26.2242C18.1578 26.2242 16.6654 24.7319 16.6654 22.8909C16.6654 21.05 18.1578 19.5576 19.9987 19.5576C21.8397 19.5576 23.3321 21.05 23.3321 22.8909ZM28.5796 8.4447L8.93908 13.7074C8.48827 13.8281 8.26287 13.8885 8.11419 14.0224C7.98341 14.1402 7.89327 14.2963 7.85668 14.4684C7.81508 14.6641 7.87548 14.8895 7.99627 15.3403L9.46291 20.8139C9.58371 21.2647 9.6441 21.4901 9.77797 21.6388C9.89573 21.7696 10.0519 21.8597 10.224 21.8963C10.4197 21.9379 10.6451 21.8775 11.0959 21.7567L30.7364 16.4941L28.5796 8.4447ZM36.3194 16.7236C34.5161 17.2068 33.6145 17.4483 32.8317 17.282C32.1432 17.1356 31.5187 16.775 31.0476 16.2519C30.5122 15.6572 30.2706 14.7556 29.7874 12.9524L29.5286 11.9864C29.0454 10.1832 28.8038 9.28158 28.9702 8.4988C29.1166 7.81026 29.4771 7.18572 30.0003 6.71469C30.595 6.17921 31.4966 5.93763 33.2998 5.45445C33.7506 5.33366 33.976 5.27326 34.1717 5.31486C34.3439 5.35145 34.5 5.44159 34.6177 5.57237C34.7516 5.72105 34.812 5.94645 34.9328 6.39726L37.2622 15.0906C37.383 15.5414 37.4434 15.7668 37.4018 15.9625C37.3652 16.1346 37.275 16.2908 37.1443 16.4085C36.9956 16.5424 36.7702 16.6028 36.3194 16.7236ZM5.83491 21.441L8.08874 20.837C8.53955 20.7162 8.76495 20.6558 8.91363 20.522C9.04441 20.4042 9.13455 20.2481 9.17114 20.076C9.21274 19.8803 9.15234 19.6549 9.03155 19.204L8.42764 16.9502C8.30684 16.4994 8.24645 16.274 8.11258 16.1253C7.99482 15.9946 7.83869 15.9044 7.66655 15.8678C7.47085 15.8262 7.24545 15.8866 6.79464 16.0074L4.54082 16.6113C4.09001 16.7321 3.8646 16.7925 3.71593 16.9264C3.58515 17.0441 3.495 17.2003 3.45841 17.3724C3.41682 17.5681 3.47721 17.7935 3.59801 18.2443L4.20192 20.4981C4.32271 20.949 4.38311 21.1744 4.51698 21.323C4.63473 21.4538 4.79087 21.544 4.96301 21.5805C5.1587 21.6221 5.3841 21.5617 5.83491 21.441Z" stroke="#3051F3" stroke-opacity="0.8" stroke-width="3.33333" stroke-linecap="round" stroke-linejoin="round"/>
</svg>
