<svg width="65" height="65" viewBox="0 0 65 65" fill="none" xmlns="http://www.w3.org/2000/svg">
<path d="M6.96231 24.5898H57.629M26.9623 8.58984L21.629 24.5898L32.2956 55.2565L42.9623 24.5898L37.629 8.58984M33.9345 54.6232L57.8242 25.9556C58.2291 25.4697 58.4315 25.2268 58.5089 24.9556C58.5771 24.7165 58.5771 24.4631 58.5089 24.2241C58.4315 23.9529 58.2291 23.71 57.8242 23.2241L46.2686 9.35745C46.0335 9.07529 45.916 8.93422 45.7718 8.83279C45.6441 8.74293 45.5017 8.67619 45.3509 8.63563C45.1807 8.58984 44.9971 8.58984 44.6298 8.58984H19.9615C19.5942 8.58984 19.4106 8.58984 19.2404 8.63563C19.0896 8.67619 18.9471 8.74293 18.8194 8.83279C18.6753 8.93422 18.5578 9.07529 18.3226 9.35745L6.76708 23.2241C6.3622 23.71 6.15976 23.9529 6.0824 24.2241C6.0142 24.4631 6.0142 24.7165 6.0824 24.9556C6.15976 25.2268 6.3622 25.4697 6.76708 25.9556L30.6568 54.6232C31.2196 55.2986 31.501 55.6363 31.8379 55.7594C32.1335 55.8675 32.4578 55.8675 32.7534 55.7594C33.0903 55.6363 33.3717 55.2986 33.9345 54.6232Z" stroke="white" stroke-width="5.33333" stroke-linecap="round" stroke-linejoin="round"/>
</svg>
