<svg width="41" height="41" viewBox="0 0 41 41" fill="none" xmlns="http://www.w3.org/2000/svg">
<g clip-path="url(#clip0_16264_7257)">
<mask id="mask0_16264_7257" style="mask-type:alpha" maskUnits="userSpaceOnUse" x="0" y="0" width="41" height="41">
<path d="M20.5 40.1328C31.5457 40.1328 40.5 31.1785 40.5 20.1328C40.5 9.08712 31.5457 0.132812 20.5 0.132812C9.4543 0.132812 0.5 9.08712 0.5 20.1328C0.5 31.1785 9.4543 40.1328 20.5 40.1328Z" fill="white"/>
</mask>
<g mask="url(#mask0_16264_7257)">
<path d="M0.5 27.0859L20.4766 24.6641L40.5 27.0859V40.1328H0.5V27.0859Z" fill="#D80027"/>
<path d="M0.5 13.1807L20.6562 10.001L40.5 13.1807V27.0869H0.5V13.1807Z" fill="#FFDA44"/>
<path d="M0.5 0.132812H40.5V13.1797H0.5V0.132812Z" fill="#6DA544"/>
<path d="M20.502 29.6953C25.7832 29.6953 30.0645 25.414 30.0645 20.1328C30.0645 14.8516 25.7832 10.5703 20.502 10.5703C15.2207 10.5703 10.9395 14.8516 10.9395 20.1328C10.9395 25.414 15.2207 29.6953 20.502 29.6953Z" fill="#0052B4"/>
<path d="M20.5 12.7256L22.2188 18.0381H27.8203L23.2891 21.3193L25.0313 26.6553L20.5 23.3506L15.9688 26.6475L17.7031 21.3271L13.1719 18.0459H18.7813L20.5 12.7256Z" fill="#FFDA44"/>
<path d="M27.3809 21.459L21.9121 19.6699L25.2871 15.0137L23.8809 13.998L20.498 18.6465L17.1152 13.9824L15.709 15.0059L19.0918 19.6699L13.6152 21.4434L14.1543 23.0996L19.623 21.3184V27.084H21.3652V21.3262L26.8418 23.1074L27.3809 21.459Z" fill="#FFDA44"/>
</g>
</g>
<defs>
<clipPath id="clip0_16264_7257">
<rect width="40" height="40" fill="white" transform="translate(0.5 0.132812)"/>
</clipPath>
</defs>
</svg>
