<svg width="30" height="26" viewBox="0 0 30 26" fill="none" xmlns="http://www.w3.org/2000/svg">
<path d="M5.66602 10.671V18.6858C5.66602 19.1645 5.66602 19.4038 5.73889 19.615C5.80333 19.8019 5.9085 19.972 6.04679 20.1132C6.20317 20.2729 6.41722 20.3799 6.84529 20.594L14.0453 24.194C14.3951 24.3689 14.57 24.4563 14.7535 24.4907C14.916 24.5212 15.0827 24.5212 15.2452 24.4907C15.4287 24.4563 15.6036 24.3689 15.9534 24.194L23.1534 20.594C23.5815 20.3799 23.7955 20.2729 23.9519 20.1132C24.0902 19.972 24.1954 19.8019 24.2598 19.615C24.3327 19.4038 24.3327 19.1645 24.3327 18.6858V10.671M1.66602 8.67099L14.5223 2.24283C14.6972 2.15538 14.7847 2.11165 14.8764 2.09444C14.9577 2.0792 15.041 2.0792 15.1223 2.09444C15.214 2.11165 15.3015 2.15538 15.4764 2.24283L28.3327 8.67099L15.4764 15.0991C15.3015 15.1866 15.214 15.2303 15.1223 15.2475C15.041 15.2628 14.9577 15.2628 14.8764 15.2475C14.7847 15.2303 14.6972 15.1866 14.5223 15.0991L1.66602 8.67099Z" stroke="#000D4D" stroke-opacity="0.45" stroke-width="2.66667" stroke-linecap="round" stroke-linejoin="round"/>
</svg>
