<svg width="30" height="29" viewBox="0 0 30 29" fill="none" xmlns="http://www.w3.org/2000/svg">
<path d="M6.66536 7.33822L12.6654 13.3382M6.66536 7.33822H2.66536L1.33203 3.33822L2.66536 2.00488L6.66536 3.33822V7.33822ZM24.344 2.9929L20.8405 6.49639C20.3125 7.02441 20.0485 7.28842 19.9496 7.59286C19.8626 7.86065 19.8626 8.14911 19.9496 8.41691C20.0485 8.72134 20.3125 8.98535 20.8405 9.51338L21.1569 9.82972C21.6849 10.3577 21.9489 10.6218 22.2533 10.7207C22.5211 10.8077 22.8096 10.8077 23.0774 10.7207C23.3818 10.6218 23.6458 10.3577 24.1739 9.82972L27.4511 6.55251C27.804 7.4114 27.9987 8.35208 27.9987 9.33822C27.9987 13.3883 24.7155 16.6715 20.6654 16.6715C20.1771 16.6715 19.7 16.6238 19.2384 16.5328C18.5902 16.405 18.2661 16.341 18.0696 16.3606C17.8607 16.3814 17.7578 16.4128 17.5727 16.5118C17.3986 16.605 17.224 16.7796 16.8747 17.1288L7.33203 26.6715C6.22746 27.7761 4.4366 27.7761 3.33203 26.6715C2.22746 25.567 2.22746 23.7761 3.33203 22.6715L12.8747 13.1288C13.224 12.7796 13.3986 12.605 13.4918 12.4309C13.5908 12.2458 13.6221 12.1428 13.643 11.934C13.6625 11.7375 13.5986 11.4134 13.4708 10.7652C13.3798 10.3036 13.332 9.82649 13.332 9.33822C13.332 5.28813 16.6153 2.00488 20.6654 2.00488C22.006 2.00488 23.2627 2.36465 24.344 2.9929ZM14.6654 19.3381L21.9987 26.6714C23.1033 27.776 24.8941 27.776 25.9987 26.6714C27.1033 25.5668 27.1032 23.776 25.9987 22.6714L19.9658 16.6386C19.5387 16.5982 19.1223 16.5212 18.7197 16.4107C18.201 16.2683 17.632 16.3716 17.2516 16.752L14.6654 19.3381Z" stroke="#000D4D" stroke-opacity="0.45" stroke-width="2.66667" stroke-linecap="round" stroke-linejoin="round"/>
</svg>
