<svg width="25" height="25" viewBox="0 0 25 25" fill="none" xmlns="http://www.w3.org/2000/svg">
<g clip-path="url(#clip0_16389_10119)">
<path d="M12.4067 2.39141C15.613 2.39141 15.9927 2.40547 17.2536 2.46172C18.4255 2.51328 19.0583 2.71016 19.4802 2.87422C20.038 3.08984 20.4411 3.35234 20.8583 3.76953C21.2802 4.19141 21.538 4.58984 21.7536 5.14766C21.9177 5.56953 22.1146 6.20703 22.1661 7.37422C22.2224 8.63984 22.2364 9.01953 22.2364 12.2211C22.2364 15.4273 22.2224 15.807 22.1661 17.068C22.1146 18.2398 21.9177 18.8727 21.7536 19.2945C21.538 19.8523 21.2755 20.2555 20.8583 20.6727C20.4364 21.0945 20.038 21.3523 19.4802 21.568C19.0583 21.732 18.4208 21.9289 17.2536 21.9805C15.988 22.0367 15.6083 22.0508 12.4067 22.0508C9.20049 22.0508 8.8208 22.0367 7.55986 21.9805C6.38799 21.9289 5.75518 21.732 5.3333 21.568C4.77549 21.3523 4.37236 21.0898 3.95518 20.6727C3.5333 20.2508 3.27549 19.8523 3.05986 19.2945C2.8958 18.8727 2.69893 18.2352 2.64736 17.068C2.59111 15.8023 2.57705 15.4227 2.57705 12.2211C2.57705 9.01484 2.59111 8.63516 2.64736 7.37422C2.69893 6.20234 2.8958 5.56953 3.05986 5.14766C3.27549 4.58984 3.53799 4.18672 3.95518 3.76953C4.37705 3.34766 4.77549 3.08984 5.3333 2.87422C5.75518 2.71016 6.39268 2.51328 7.55986 2.46172C8.8208 2.40547 9.20049 2.39141 12.4067 2.39141ZM12.4067 0.230469C9.14893 0.230469 8.74111 0.244531 7.46143 0.300781C6.18643 0.357031 5.30986 0.563281 4.55049 0.858594C3.7583 1.16797 3.08799 1.57578 2.42236 2.24609C1.75205 2.91172 1.34424 3.58203 1.03486 4.36953C0.739551 5.13359 0.533301 6.00547 0.477051 7.28047C0.420801 8.56484 0.406738 8.97266 0.406738 12.2305C0.406738 15.4883 0.420801 15.8961 0.477051 17.1758C0.533301 18.4508 0.739551 19.3273 1.03486 20.0867C1.34424 20.8789 1.75205 21.5492 2.42236 22.2148C3.08799 22.8805 3.7583 23.293 4.5458 23.5977C5.30986 23.893 6.18174 24.0992 7.45674 24.1555C8.73643 24.2117 9.14424 24.2258 12.4021 24.2258C15.6599 24.2258 16.0677 24.2117 17.3474 24.1555C18.6224 24.0992 19.4989 23.893 20.2583 23.5977C21.0458 23.293 21.7161 22.8805 22.3817 22.2148C23.0474 21.5492 23.4599 20.8789 23.7646 20.0914C24.0599 19.3273 24.2661 18.4555 24.3224 17.1805C24.3786 15.9008 24.3927 15.493 24.3927 12.2352C24.3927 8.97734 24.3786 8.56953 24.3224 7.28984C24.2661 6.01484 24.0599 5.13828 23.7646 4.37891C23.4692 3.58203 23.0614 2.91172 22.3911 2.24609C21.7255 1.58047 21.0552 1.16797 20.2677 0.863281C19.5036 0.567969 18.6317 0.361719 17.3567 0.305469C16.0724 0.244531 15.6646 0.230469 12.4067 0.230469Z" fill="#000D4D" fill-opacity="0.45"/>
<path d="M12.4067 6.06641C9.00361 6.06641 6.24268 8.82734 6.24268 12.2305C6.24268 15.6336 9.00361 18.3945 12.4067 18.3945C15.8099 18.3945 18.5708 15.6336 18.5708 12.2305C18.5708 8.82734 15.8099 6.06641 12.4067 6.06641ZM12.4067 16.2289C10.1989 16.2289 8.4083 14.4383 8.4083 12.2305C8.4083 10.0227 10.1989 8.23203 12.4067 8.23203C14.6146 8.23203 16.4052 10.0227 16.4052 12.2305C16.4052 14.4383 14.6146 16.2289 12.4067 16.2289Z" fill="#000D4D" fill-opacity="0.45"/>
<path d="M20.2536 5.82188C20.2536 6.61875 19.6067 7.26094 18.8146 7.26094C18.0177 7.26094 17.3755 6.61407 17.3755 5.82188C17.3755 5.025 18.0224 4.38281 18.8146 4.38281C19.6067 4.38281 20.2536 5.02969 20.2536 5.82188Z" fill="#000D4D" fill-opacity="0.45"/>
</g>
<defs>
<clipPath id="clip0_16389_10119">
<rect width="24" height="24" fill="white" transform="translate(0.406738 0.230469)"/>
</clipPath>
</defs>
</svg>
