<svg width="41" height="41" viewBox="0 0 41 41" fill="none" xmlns="http://www.w3.org/2000/svg">
<g clip-path="url(#clip0_16264_7324)">
<mask id="mask0_16264_7324" style="mask-type:alpha" maskUnits="userSpaceOnUse" x="0" y="0" width="41" height="41">
<path d="M20.5 40.1328C31.5457 40.1328 40.5 31.1785 40.5 20.1328C40.5 9.08712 31.5457 0.132812 20.5 0.132812C9.4543 0.132812 0.5 9.08712 0.5 20.1328C0.5 31.1785 9.4543 40.1328 20.5 40.1328Z" fill="white"/>
</mask>
<g mask="url(#mask0_16264_7324)">
<path d="M0.5 13.1787L20.3281 11.6709L40.5 13.1787V27.085L20.5859 29.6084L0.5 27.085V13.1787Z" fill="#D80027"/>
<path d="M0.5 0.132812H40.5V13.1797H0.5V0.132812Z" fill="#333333"/>
<path d="M0.5 27.0859H40.5V40.1328H0.5V27.0859Z" fill="#496E2D"/>
<path d="M26.4766 9.69531L24.0391 8.54688L25.3359 6.17969L22.6797 6.6875L22.3438 4.00781L20.5 5.99219L18.6562 4.01563L18.3125 6.69531L15.6563 6.1875L16.9609 8.55469L14.5156 9.70312L26.4766 9.69531Z" fill="#D80027"/>
</g>
</g>
<defs>
<clipPath id="clip0_16264_7324">
<rect width="40" height="40" fill="white" transform="translate(0.5 0.132812)"/>
</clipPath>
</defs>
</svg>
