<svg width="30" height="29" viewBox="0 0 30 29" fill="none" xmlns="http://www.w3.org/2000/svg">
<path d="M6.83333 7.13314L12.8333 13.1331M6.83333 7.13314H2.83333L1.5 3.13314L2.83333 1.7998L6.83333 3.13314V7.13314ZM24.512 2.78782L21.0085 6.29131C20.4805 6.81933 20.2165 7.08334 20.1175 7.38778C20.0305 7.65557 20.0305 7.94404 20.1175 8.21183C20.2165 8.51627 20.4805 8.78028 21.0085 9.3083L21.3248 9.62464C21.8529 10.1527 22.1169 10.4167 22.4213 10.5156C22.6891 10.6026 22.9776 10.6026 23.2454 10.5156C23.5498 10.4167 23.8138 10.1527 24.3418 9.62464L27.619 6.34743C27.972 7.20632 28.1667 8.147 28.1667 9.13314C28.1667 13.1832 24.8834 16.4665 20.8333 16.4665C20.3451 16.4665 19.8679 16.4188 19.4063 16.3277C18.7582 16.1999 18.4341 16.136 18.2376 16.1555C18.0287 16.1764 17.9258 16.2077 17.7407 16.3067C17.5666 16.3999 17.392 16.5745 17.0427 16.9238L7.5 26.4665C6.39543 27.571 4.60457 27.571 3.5 26.4665C2.39543 25.3619 2.39543 23.571 3.5 22.4665L13.0427 12.9238C13.392 12.5745 13.5666 12.3999 13.6598 12.2258C13.7588 12.0407 13.7901 11.9378 13.8109 11.7289C13.8305 11.5324 13.7666 11.2083 13.6388 10.5601C13.5477 10.0985 13.5 9.62142 13.5 9.13314C13.5 5.08305 16.7832 1.7998 20.8333 1.7998C22.174 1.7998 23.4306 2.15957 24.512 2.78782ZM14.8334 19.1331L22.1667 26.4663C23.2712 27.5709 25.0621 27.5709 26.1666 26.4663C27.2712 25.3618 27.2712 23.5709 26.1666 22.4663L20.1338 16.4335C19.7067 16.3931 19.2903 16.3161 18.8877 16.2056C18.369 16.0632 17.7999 16.1665 17.4195 16.5469L14.8334 19.1331Z" stroke="#3051F3" stroke-opacity="0.8" stroke-width="2.66667" stroke-linecap="round" stroke-linejoin="round"/>
</svg>
