<svg width="31" height="30" viewBox="0 0 31 30" fill="none" xmlns="http://www.w3.org/2000/svg">
<path d="M28.8327 15.1331H23.4993M7.49935 15.1331H2.16602M15.4993 7.13314V1.7998M15.4993 28.4665V23.1331M26.166 15.1331C26.166 21.0242 21.3904 25.7998 15.4993 25.7998C9.60831 25.7998 4.83268 21.0242 4.83268 15.1331C4.83268 9.2421 9.60831 4.46647 15.4993 4.46647C21.3904 4.46647 26.166 9.2421 26.166 15.1331ZM19.4993 15.1331C19.4993 17.3423 17.7085 19.1331 15.4993 19.1331C13.2902 19.1331 11.4993 17.3423 11.4993 15.1331C11.4993 12.924 13.2902 11.1331 15.4993 11.1331C17.7085 11.1331 19.4993 12.924 19.4993 15.1331Z" stroke="#3051F3" stroke-opacity="0.8" stroke-width="2.66667" stroke-linecap="round" stroke-linejoin="round"/>
</svg>
