<svg width="41" height="41" viewBox="0 0 41 41" fill="none" xmlns="http://www.w3.org/2000/svg">
<g clip-path="url(#clip0_16791_16228)">
<mask id="mask0_16791_16228" style="mask-type:alpha" maskUnits="userSpaceOnUse" x="0" y="0" width="41" height="41">
<path d="M20.5 40.1328C31.5457 40.1328 40.5 31.1785 40.5 20.1328C40.5 9.08712 31.5457 0.132812 20.5 0.132812C9.4543 0.132812 0.5 9.08712 0.5 20.1328C0.5 31.1785 9.4543 40.1328 20.5 40.1328Z" fill="white"/>
</mask>
<g mask="url(#mask0_16791_16228)">
<path d="M20.5 0.132812H40.5V8.13281L38.2969 11.9297L40.5 16.1328V24.1328L38.1172 28.0937L40.5 32.1328V40.1328H0.5V32.1328L3.21094 28.1484L0.5 24.125L20.5 0.132812Z" fill="#496E2D"/>
<path d="M18.6016 8.13281V16.1328H40.5V8.13281H18.6016ZM0.5 24.1328V32.1328H40.5V24.1328H20.5L10.4844 22.0703L0.5 24.1328Z" fill="#FFDA44"/>
<path d="M20.5 24.1328V0.132812H0.5V24.1328H20.5Z" fill="#D80027"/>
<path d="M11.5469 9.69531L12.8359 13.6797H17.0313L13.625 16.1484L14.9219 20.1328L11.5312 17.6719L8.15625 20.1328L9.44531 16.1484L6.04688 13.6875H10.2422L11.5469 9.69531Z" fill="#EEEEEE"/>
</g>
</g>
<defs>
<clipPath id="clip0_16791_16228">
<rect width="40" height="40" fill="white" transform="translate(0.5 0.132812)"/>
</clipPath>
</defs>
</svg>
