<svg width="41" height="41" viewBox="0 0 41 41" fill="none" xmlns="http://www.w3.org/2000/svg">
<g clip-path="url(#clip0_16264_7397)">
<mask id="mask0_16264_7397" style="mask-type:alpha" maskUnits="userSpaceOnUse" x="0" y="0" width="41" height="41">
<path d="M20.5 40.1328C31.5457 40.1328 40.5 31.1785 40.5 20.1328C40.5 9.08712 31.5457 0.132812 20.5 0.132812C9.4543 0.132812 0.5 9.08712 0.5 20.1328C0.5 31.1785 9.4543 40.1328 20.5 40.1328Z" fill="white"/>
</mask>
<g mask="url(#mask0_16264_7397)">
<path d="M0.5 0.132812H40.5V40.1328H0.5V0.132812Z" fill="#ECECEC"/>
<path d="M40.5 33.4697V6.79785L20.5 5.35254L0.5 6.79785V33.4697L20.5 34.915L40.5 33.4697Z" fill="#FFDA44"/>
<path d="M0.5 20.125L20.5 21.8672L40.5 20.125V13.4609H0.5V20.125Z" fill="#D80027"/>
<path d="M0.5 6.79688H40.5V0.132812H0.5V6.79688ZM0.5 26.7891H40.5V20.125H0.5V26.7891Z" fill="#333333"/>
<path d="M40.5 33.4678H0.5V40.1318H40.5V33.4678Z" fill="#D80027"/>
<path d="M27.1719 20.1328C27.1719 21.009 26.9993 21.8766 26.664 22.686C26.3287 23.4955 25.8373 24.231 25.2177 24.8505C24.5982 25.4701 23.8627 25.9615 23.0532 26.2968C22.2437 26.6321 21.3762 26.8047 20.5 26.8047C19.6238 26.8047 18.7563 26.6321 17.9468 26.2968C17.1373 25.9615 16.4018 25.4701 15.7823 24.8505C15.1627 24.231 14.6713 23.4955 14.336 22.686C14.0007 21.8766 13.8281 21.009 13.8281 20.1328C13.8281 18.3633 14.5311 16.6663 15.7823 15.4151C17.0335 14.1639 18.7305 13.4609 20.5 13.4609C22.2695 13.4609 23.9665 14.1639 25.2177 15.4151C26.4689 16.6663 27.1719 18.3633 27.1719 20.1328Z" fill="#EEEEEE"/>
<path d="M22.9453 20.4756L20.5 19.4131L21.1016 17.3818C21.1532 17.1662 21.1487 16.941 21.0885 16.7277C21.0284 16.5143 20.9145 16.3199 20.7578 16.1631L21.3672 15.5537C21.1667 15.3514 20.9282 15.1907 20.6654 15.0808C20.4027 14.9708 20.1208 14.9138 19.8359 14.9131C19.5498 14.9128 19.2664 14.9693 19.0022 15.0793C18.7381 15.1892 18.4983 15.3505 18.2969 15.5537L18.9062 16.1631C18.7861 16.2845 18.6912 16.4284 18.6268 16.5866C18.5624 16.7448 18.53 16.9142 18.5312 17.085C18.5312 17.2178 18.5469 17.3506 18.5859 17.4678L17.6562 18.3896H19.3437C19.3437 18.3896 18.6406 19.4365 18.2656 20.2959C17.8828 21.1553 18.2656 22.2021 19.1484 22.5928L19.6562 22.8193L20.5 23.6084V24.4834L19.6328 25.3428H21.3594V23.6084L22.1562 22.8193H23.7969L23.8203 22.7647C23.9148 22.5567 23.967 22.332 23.9737 22.1037C23.9804 21.8753 23.9415 21.648 23.8593 21.4348C23.7771 21.2217 23.6532 21.0271 23.495 20.8624C23.3367 20.6977 23.1472 20.5662 22.9375 20.4756H22.9453Z" fill="#333333"/>
</g>
</g>
<defs>
<clipPath id="clip0_16264_7397">
<rect width="40" height="40" fill="white" transform="translate(0.5 0.132812)"/>
</clipPath>
</defs>
</svg>
