<svg width="30" height="30" viewBox="0 0 30 30" fill="none" xmlns="http://www.w3.org/2000/svg">
<path d="M3.33797 9.0409L9.05535 13.1247C9.35286 13.3372 9.50161 13.4434 9.65729 13.4679C9.79427 13.4894 9.93457 13.4677 10.0586 13.4058C10.1996 13.3354 10.3093 13.1892 10.5287 12.8967L11.7368 11.2858C11.7988 11.2031 11.8299 11.1618 11.8663 11.1261C11.8987 11.0944 11.9342 11.0661 11.9723 11.0416C12.0152 11.0141 12.0625 10.9931 12.1569 10.9511L17.3151 8.65859C17.5289 8.56356 17.6358 8.51604 17.7164 8.44183C17.7877 8.3762 17.8438 8.29581 17.8809 8.20626C17.9228 8.10501 17.9306 7.98828 17.9461 7.75481L18.3238 2.08968M17.2367 17.0638L20.7247 18.5587C21.1294 18.7321 21.3317 18.8188 21.4389 18.9629C21.5329 19.0892 21.5792 19.2448 21.5694 19.402C21.5584 19.5813 21.4362 19.7644 21.192 20.1308L19.5533 22.5888C19.4375 22.7625 19.3797 22.8493 19.3032 22.9122C19.2355 22.9678 19.1574 23.0096 19.0736 23.0351C18.9789 23.0638 18.8745 23.0638 18.6658 23.0638H16.0055C15.729 23.0638 15.5908 23.0638 15.4732 23.0176C15.3693 22.9767 15.2773 22.9104 15.2057 22.8248C15.1247 22.7279 15.081 22.5967 14.9935 22.3345L14.043 19.483C13.9915 19.3283 13.9657 19.2509 13.9589 19.1723C13.9529 19.1026 13.9579 19.0324 13.9737 18.9643C13.9915 18.8874 14.028 18.8145 14.1009 18.6686L14.8229 17.2246C14.9696 16.9312 15.043 16.7845 15.156 16.6934C15.2555 16.6132 15.3761 16.5632 15.5032 16.5496C15.6475 16.5341 15.8031 16.586 16.1143 16.6897L17.2367 17.0638ZM28.57 15.0638C28.57 22.4276 22.6005 28.3971 15.2367 28.3971C7.87286 28.3971 1.90332 22.4276 1.90332 15.0638C1.90332 7.70001 7.87286 1.73047 15.2367 1.73047C22.6005 1.73047 28.57 7.70001 28.57 15.0638Z" stroke="#000D4D" stroke-opacity="0.45" stroke-width="2.66667" stroke-linecap="round" stroke-linejoin="round"/>
</svg>
