<svg width="31" height="28" viewBox="0 0 31 28" fill="none" xmlns="http://www.w3.org/2000/svg">
<path d="M15.5704 26.0635L15.437 25.8634C14.5108 24.4741 14.0477 23.7794 13.4359 23.2766C12.8942 22.8314 12.2701 22.4974 11.5992 22.2936C10.8414 22.0635 10.0065 22.0635 8.33683 22.0635H6.50373C5.01025 22.0635 4.26352 22.0635 3.69309 21.7728C3.19132 21.5172 2.78337 21.1092 2.52771 20.6075C2.23706 20.037 2.23706 19.2903 2.23706 17.7968V6.33014C2.23706 4.83667 2.23706 4.08993 2.52771 3.5195C2.78337 3.01774 3.19132 2.60979 3.69309 2.35413C4.26352 2.06348 5.01025 2.06348 6.50373 2.06348H7.03706C10.024 2.06348 11.5175 2.06348 12.6583 2.64478C13.6619 3.1561 14.4778 3.972 14.9891 4.97553C15.5704 6.11639 15.5704 7.60986 15.5704 10.5968M15.5704 26.0635V10.5968M15.5704 26.0635L15.7038 25.8634C16.63 24.4741 17.0931 23.7794 17.7049 23.2766C18.2466 22.8314 18.8707 22.4974 19.5416 22.2936C20.2994 22.0635 21.1343 22.0635 22.804 22.0635H24.6371C26.1305 22.0635 26.8773 22.0635 27.4477 21.7728C27.9495 21.5172 28.3574 21.1092 28.6131 20.6075C28.9037 20.037 28.9037 19.2903 28.9037 17.7968V6.33014C28.9037 4.83667 28.9037 4.08993 28.6131 3.5195C28.3574 3.01774 27.9495 2.60979 27.4477 2.35413C26.8773 2.06348 26.1305 2.06348 24.6371 2.06348H24.1037C21.1168 2.06348 19.6233 2.06348 18.4824 2.64478C17.4789 3.1561 16.663 3.972 16.1517 4.97553C15.5704 6.11639 15.5704 7.60986 15.5704 10.5968" stroke="#000D4D" stroke-opacity="0.45" stroke-width="2.66667" stroke-linecap="round" stroke-linejoin="round"/>
</svg>
