<svg width="30" height="30" viewBox="0 0 30 30" fill="none" xmlns="http://www.w3.org/2000/svg">
<path d="M6.90365 25.8465H10.384C10.8378 25.8465 11.2888 25.9005 11.7287 26.0085L15.4062 26.9022C16.2041 27.0966 17.0353 27.1155 17.8416 26.9589L21.9076 26.1678C22.9817 25.9586 23.9698 25.4443 24.7441 24.691L27.6208 21.8926C28.4424 21.0948 28.4424 19.8002 27.6208 19.0011C26.8812 18.2816 25.7099 18.2006 24.8732 18.8107L21.5204 21.2568C21.0403 21.6078 20.4561 21.7968 19.8552 21.7968H16.6176L18.6784 21.7967C19.8399 21.7967 20.7808 20.8814 20.7808 19.7515V19.3425C20.7808 18.4043 20.1244 17.5863 19.1891 17.3595L16.0084 16.586C15.4908 16.4604 14.9607 16.397 14.4278 16.397C13.1414 16.397 10.8128 17.4621 10.8128 17.4621L6.90365 19.0968M1.57031 18.5303L1.57031 26.2637C1.57031 27.0104 1.57031 27.3838 1.71564 27.669C1.84347 27.9199 2.04744 28.1238 2.29832 28.2517C2.58354 28.397 2.95691 28.397 3.70365 28.397H4.77031C5.51705 28.397 5.89042 28.397 6.17563 28.2517C6.42652 28.1238 6.63049 27.9199 6.75832 27.669C6.90365 27.3838 6.90365 27.0104 6.90365 26.2637V18.5303C6.90365 17.7836 6.90365 17.4102 6.75832 17.125C6.63049 16.8741 6.42652 16.6702 6.17563 16.5423C5.89042 16.397 5.51705 16.397 4.77031 16.397H3.70365C2.95691 16.397 2.58354 16.397 2.29833 16.5423C2.04744 16.6702 1.84347 16.8741 1.71564 17.125C1.57031 17.4102 1.57031 17.7836 1.57031 18.5303ZM21.8255 3.85334C21.0297 2.18819 19.1951 1.30604 17.4109 2.15749C15.6267 3.00894 14.8666 5.02817 15.6136 6.80076C16.0753 7.89627 17.398 10.0237 18.3411 11.489C18.6896 12.0305 18.8638 12.3012 19.1183 12.4596C19.3366 12.5954 19.6099 12.6686 19.8668 12.6601C20.1664 12.6502 20.4527 12.5029 21.0252 12.2082C22.5746 11.4107 24.7838 10.2297 25.7314 9.51183C27.2646 8.35022 27.6444 6.2151 26.4965 4.59198C25.3486 2.96887 23.3472 2.80916 21.8255 3.85334Z" stroke="#000D4D" stroke-opacity="0.45" stroke-width="2.66667" stroke-linecap="round" stroke-linejoin="round"/>
</svg>
