<svg width="30" height="30" viewBox="0 0 30 30" fill="none" xmlns="http://www.w3.org/2000/svg">
<path d="M12.57 22.6086V25.7305C12.57 27.2032 13.7639 28.3971 15.2367 28.3971C16.7094 28.3971 17.9033 27.2032 17.9033 25.7305V22.6086M15.2367 1.73047V3.0638M3.23665 15.0638H1.90332M6.56999 6.39714L5.76986 5.59701M23.9033 6.39714L24.7037 5.59701M28.57 15.0638H27.2367M23.2367 15.0638C23.2367 19.4821 19.6549 23.0638 15.2367 23.0638C10.8184 23.0638 7.23665 19.4821 7.23665 15.0638C7.23665 10.6455 10.8184 7.0638 15.2367 7.0638C19.6549 7.0638 23.2367 10.6455 23.2367 15.0638Z" stroke="#000D4D" stroke-opacity="0.45" stroke-width="2.66667" stroke-linecap="round" stroke-linejoin="round"/>
</svg>
