<svg width="41" height="41" viewBox="0 0 41 41" fill="none" xmlns="http://www.w3.org/2000/svg">
<g clip-path="url(#clip0_16791_9094)">
<mask id="mask0_16791_9094" style="mask-type:alpha" maskUnits="userSpaceOnUse" x="0" y="0" width="41" height="41">
<path d="M20.5 40.1328C31.5457 40.1328 40.5 31.1785 40.5 20.1328C40.5 9.08712 31.5457 0.132812 20.5 0.132812C9.4543 0.132812 0.5 9.08712 0.5 20.1328C0.5 31.1785 9.4543 40.1328 20.5 40.1328Z" fill="white"/>
</mask>
<g mask="url(#mask0_16791_9094)">
<path d="M2.95117 0.132812H40.498V40.1328H2.95117V0.132812Z" fill="#6DA544"/>
<path d="M5.01562 5.86035H40.5V11.5869L35.4141 20.1807L40.5 28.7744V34.501H5.01562V5.86035Z" fill="#FFDA44"/>
<path d="M10.8125 11.5859H40.5V17.3125L38.3906 20.125L40.5 23.0391V28.7656H10.8125V11.5859Z" fill="#D80027"/>
<path d="M0.5 0.132812V40.1328L22.3594 20.1328L0.5 0.132812Z" fill="#EEEEEE"/>
<path d="M8.54688 14.9131L9.83594 18.8975H14.0234L10.6328 21.3662L11.9297 25.3506L8.53906 22.8896L5.14844 25.3506L6.44531 21.3662L3.05469 18.8975H7.24219L8.54688 14.9131Z" fill="#D80027"/>
<path d="M12.0996 20.4614L8.72461 19.2661L8.45898 16.8442C8.42543 16.672 8.3575 16.5084 8.25925 16.3631C8.161 16.2177 8.03445 16.0937 7.88717 15.9984C7.73989 15.9031 7.5749 15.8385 7.40207 15.8084C7.22924 15.7783 7.05212 15.7834 6.8813 15.8233C6.71048 15.8633 6.54947 15.9373 6.4079 16.0409C6.26633 16.1445 6.1471 16.2755 6.05736 16.4263C5.96761 16.577 5.90918 16.7443 5.88557 16.9181C5.86195 17.092 5.87364 17.2688 5.91992 17.438L4.98242 18.3833H6.66211C6.66211 20.1333 5.35742 20.1333 5.35742 21.8755L6.07617 23.6099H10.4277L11.1543 21.8755C11.2248 21.7115 11.2696 21.5375 11.2871 21.3599C11.9121 21.1099 12.0996 20.4614 12.0996 20.4614V20.4614Z" fill="#FFDA44"/>
<path d="M2.95312 0.132812L20.1406 17.3203H40.5V23.0391H20.0469L2.95312 40.1328H0.5L20.5 20.1328L0.5 0.132812H2.95312Z" fill="#333333"/>
</g>
</g>
<defs>
<clipPath id="clip0_16791_9094">
<rect width="40" height="40" fill="white" transform="translate(0.5 0.132812)"/>
</clipPath>
</defs>
</svg>
